<?xml version="1.0" standalone="no"?>
<!DOCTYPE svg PUBLIC "-//W3C//DTD SVG 20010904//EN"
 "http://www.w3.org/TR/2001/REC-SVG-20010904/DTD/svg10.dtd">
<svg version="1.0" xmlns="http://www.w3.org/2000/svg"
 width="3000.000000pt" height="3000.000000pt" viewBox="0 0 3000.000000 3000.000000"
 preserveAspectRatio="xMidYMid meet">
<metadata>
Created by potrace 1.14, written by Peter Selinger 2001-2017
</metadata>
<g transform="translate(0.000000,3000.000000) scale(0.100000,-0.100000)"
fill="#000000" stroke="none">
<path d="M16870 22428 c-81 -49 -139 -130 -251 -352 -88 -173 -109 -207 -163
-260 -34 -34 -75 -87 -91 -118 -23 -43 -39 -61 -67 -74 -35 -16 -39 -16 -56
-1 -33 30 -156 79 -232 93 -41 7 -111 13 -155 14 l-80 0 -33 69 c-107 222
-249 364 -473 471 -201 95 -400 133 -589 110 -271 -31 -483 -120 -641 -268
-98 -92 -149 -169 -245 -365 -96 -198 -125 -306 -127 -469 l-2 -117 -65 -6
c-81 -9 -182 -29 -236 -49 -40 -14 -42 -14 -65 13 -22 25 -24 37 -25 122 0
102 -21 168 -68 219 l-23 25 18 105 c38 217 14 377 -71 474 -47 53 -85 70
-155 69 -107 -1 -191 -63 -257 -190 -45 -87 -67 -154 -123 -383 -37 -153 -49
-188 -67 -200 -75 -49 -98 -99 -98 -215 l0 -70 -69 3 c-47 3 -78 -1 -98 -11
-27 -15 -33 -14 -100 20 -61 30 -84 36 -162 41 -87 5 -94 3 -157 -28 -43 -21
-75 -45 -93 -71 -16 -21 -30 -37 -32 -34 -2 2 -56 11 -119 20 -95 14 -128 15
-204 6 -193 -25 -325 -129 -328 -258 -2 -71 7 -87 74 -143 92 -77 238 -142
389 -174 20 -4 30 -17 43 -50 10 -25 32 -58 51 -75 33 -29 130 -71 163 -71 11
0 24 -17 36 -45 10 -25 36 -61 59 -80 43 -37 131 -75 172 -75 14 0 25 -4 25
-10 0 -5 15 -27 34 -47 l34 -38 -60 -80 c-73 -97 -116 -180 -157 -303 -33 -98
-61 -238 -61 -302 l0 -37 -62 -13 c-197 -42 -431 -237 -538 -449 -42 -84 -58
-140 -66 -227 l-7 -71 -71 -28 c-174 -67 -295 -175 -376 -336 -57 -112 -77
-261 -57 -414 l8 -60 -58 -30 c-216 -111 -400 -362 -460 -627 -22 -100 -22
-311 0 -397 l17 -64 -60 -54 c-115 -104 -186 -227 -255 -438 -101 -308 -105
-572 -11 -858 34 -105 84 -219 127 -289 22 -36 22 -36 3 -83 -16 -40 -31 -55
-100 -101 -91 -61 -180 -104 -269 -129 -74 -22 -176 -16 -257 15 -102 38 -212
160 -282 312 -33 70 -146 448 -160 534 l-7 41 94 67 c183 130 273 229 341 378
43 93 60 179 53 271 -8 117 -47 202 -148 329 l-22 26 75 74 c204 202 350 541
389 903 14 135 6 439 -16 580 -33 212 -68 310 -161 453 -148 228 -290 378
-430 458 l-61 34 -6 145 c-11 231 -51 489 -108 695 -67 239 -280 516 -476 618
-111 58 -212 76 -373 69 -141 -7 -199 -20 -306 -71 -148 -70 -288 -182 -352
-282 l-33 -50 -94 -11 c-109 -13 -227 -57 -347 -130 -223 -135 -378 -425 -378
-707 l0 -53 -64 -32 c-146 -71 -241 -173 -326 -346 -60 -121 -78 -194 -86
-345 -16 -294 76 -575 264 -807 l34 -43 -12 -105 c-16 -133 -8 -478 15 -625
20 -127 59 -252 126 -402 115 -259 247 -432 415 -546 l62 -41 -24 -61 c-82
-201 -86 -388 -14 -530 47 -91 163 -188 290 -240 115 -47 210 -65 353 -64 112
0 127 -2 127 -17 0 -30 50 -212 106 -389 154 -481 313 -776 552 -1022 291
-300 605 -383 1162 -307 80 11 161 23 181 28 35 8 38 7 71 -38 33 -45 33 -47
25 -111 -4 -36 -6 -100 -3 -144 l4 -78 -33 5 c-77 13 -201 -19 -250 -64 -18
-16 -28 -17 -95 -7 -99 14 -340 4 -405 -16 -27 -8 -72 -29 -99 -46 -49 -31
-50 -31 -205 -34 -183 -3 -283 -22 -388 -72 -41 -19 -84 -49 -100 -68 -21 -25
-45 -39 -93 -54 -210 -64 -320 -140 -339 -233 -5 -27 -15 -34 -96 -68 -103
-42 -236 -111 -410 -214 -207 -121 -300 -199 -445 -372 -157 -186 -184 -263
-116 -331 29 -29 41 -34 81 -34 51 0 78 13 240 115 94 59 241 122 370 160 138
40 399 86 404 72 10 -30 80 -86 121 -97 60 -16 219 -6 379 24 l124 23 31 -35
c88 -101 284 -103 595 -8 l115 35 28 -24 c98 -83 328 -98 585 -38 64 15 77 15
103 2 l31 -14 -58 -34 c-171 -101 -243 -172 -243 -243 0 -32 -6 -44 -42 -75
-110 -96 -243 -234 -279 -288 -37 -55 -40 -64 -38 -120 l2 -62 -97 -109 c-177
-202 -226 -278 -226 -356 0 -30 -6 -50 -16 -59 -9 -7 -36 -39 -60 -70 l-43
-56 -97 23 c-53 13 -140 29 -193 35 l-97 12 -12 93 c-15 116 -44 197 -91 247
-30 32 -46 40 -83 44 -61 7 -126 -24 -163 -77 -33 -48 -64 -146 -72 -227 -3
-36 -11 -63 -17 -63 -6 0 -60 -7 -119 -15 -431 -57 -771 -276 -936 -602 -96
-191 -120 -465 -61 -697 27 -104 114 -279 190 -381 123 -165 318 -343 645
-590 94 -71 215 -165 269 -209 l99 -80 -7 -340 c-10 -446 -18 -588 -32 -593
-16 -5 -72 44 -91 81 -11 20 -19 73 -24 156 -14 231 -58 350 -168 461 -112
111 -242 156 -427 146 -228 -12 -396 -114 -483 -293 -101 -207 -88 -537 29
-783 137 -285 399 -482 767 -575 106 -27 304 -56 383 -56 l48 0 22 -64 c42
-127 103 -182 194 -173 44 4 55 10 88 47 35 39 61 103 82 200 4 22 15 28 78
44 427 108 792 382 949 711 73 155 94 249 93 430 -1 134 -4 160 -28 240 -35
114 -75 206 -136 309 -167 283 -487 592 -892 861 l-118 78 1 126 c1 69 4 159
8 200 l6 73 60 19 c33 10 61 19 63 19 1 0 2 -6 2 -13 0 -31 65 -140 108 -184
26 -25 76 -60 112 -77 55 -26 80 -31 164 -34 177 -8 308 41 425 156 119 118
170 258 157 440 l-6 97 58 55 c32 30 79 79 105 108 l46 53 6 -28 c23 -115 53
-216 104 -351 169 -452 277 -896 327 -1354 23 -208 24 -604 1 -838 -37 -383
-12 -612 90 -820 37 -77 61 -109 122 -170 128 -128 255 -177 471 -187 484 -20
809 203 934 641 51 179 61 284 57 591 -8 509 -7 607 8 657 36 124 120 116 152
-14 9 -40 10 -113 3 -313 -18 -514 -5 -708 61 -910 112 -343 321 -547 643
-627 117 -29 364 -32 462 -5 124 34 206 81 289 165 199 201 262 494 214 992
-23 236 -22 640 1 845 35 308 103 651 133 673 10 7 66 41 124 76 196 117 406
263 481 335 24 22 41 31 47 26 17 -18 131 -552 131 -614 0 -10 -11 -28 -25
-41 -69 -65 -55 -207 24 -240 30 -12 31 -14 31 -75 0 -113 -20 -318 -46 -465
-22 -129 -64 -302 -178 -736 -94 -354 -53 -589 133 -775 86 -86 173 -134 306
-171 78 -22 95 -22 575 -23 498 0 622 6 840 41 352 57 603 184 683 347 35 72
49 163 37 246 -36 258 -209 412 -460 412 -128 0 -203 -20 -445 -124 -168 -71
-252 -97 -345 -104 -117 -9 -170 26 -220 141 -41 97 -54 206 -55 451 0 261 15
359 63 416 25 31 27 31 96 26 53 -4 110 -19 226 -63 137 -50 166 -58 246 -62
151 -7 264 37 359 140 99 107 141 231 132 393 -6 127 -32 196 -97 268 -86 94
-204 138 -375 140 -105 1 -158 -13 -327 -84 -130 -55 -174 -61 -205 -26 -49
54 -48 59 29 123 39 32 106 96 149 142 77 83 78 84 132 87 113 7 243 110 333
264 l46 79 36 -11 c59 -17 219 -13 287 7 71 21 142 56 181 89 l29 25 0 -162
c0 -177 4 -194 64 -250 28 -27 31 -36 31 -87 0 -188 75 -553 152 -736 81 -197
266 -393 370 -393 21 0 38 -2 38 -4 0 -41 -65 -309 -184 -762 -94 -354 -53
-589 133 -775 86 -86 173 -134 306 -171 78 -22 95 -22 575 -23 498 0 622 6
840 41 352 57 603 184 683 347 35 72 49 163 37 246 -36 258 -209 412 -460 412
-128 0 -203 -20 -445 -124 -168 -71 -252 -97 -345 -104 -117 -9 -170 26 -220
141 -41 97 -54 206 -55 451 0 261 15 359 63 416 25 31 27 31 96 26 53 -4 110
-19 226 -63 137 -50 166 -58 246 -62 151 -7 264 37 359 140 99 107 141 231
132 393 -6 127 -32 196 -97 268 -86 94 -204 138 -375 140 -105 1 -158 -13
-327 -84 -138 -58 -176 -62 -211 -19 -47 56 -52 87 -52 345 1 192 4 253 18
308 31 122 80 191 146 203 55 11 196 -23 360 -88 229 -89 270 -100 386 -101
153 -2 277 44 380 138 27 25 51 45 54 44 3 0 59 -60 124 -132 64 -73 172 -190
238 -262 198 -212 184 -190 214 -351 74 -402 73 -683 -5 -1064 -16 -80 -66
-282 -110 -450 -86 -327 -106 -444 -95 -555 26 -274 154 -448 392 -530 148
-51 220 -60 488 -60 268 0 364 11 574 62 527 127 963 429 1254 868 429 648
485 1627 133 2318 -117 230 -284 435 -486 601 -213 174 -578 378 -815 455
-192 62 -227 66 -545 66 -306 -1 -391 -11 -533 -65 -136 -51 -261 -163 -322
-288 l-27 -55 -24 41 -24 40 26 47 c25 43 26 54 21 128 -7 118 -78 300 -162
417 -28 40 -33 56 -37 127 -5 68 -12 93 -43 151 -50 95 -130 190 -220 259 -59
46 -75 64 -75 84 0 65 -107 214 -210 292 l-35 27 113 0 c126 0 167 12 219 62
l32 31 143 -32 c166 -37 322 -61 393 -61 69 0 112 14 158 51 38 31 41 32 89
20 28 -6 109 -38 182 -72 173 -80 226 -99 281 -99 55 0 116 29 146 69 l22 30
71 -26 c228 -81 387 -185 556 -364 61 -64 68 -69 108 -69 82 0 142 52 142 123
0 62 -44 192 -94 279 -139 243 -436 586 -598 688 -37 24 -59 45 -67 67 -29 78
-199 173 -451 253 -157 50 -166 54 -210 100 -39 42 -57 52 -141 78 -52 17
-135 36 -185 42 -157 20 -147 16 -171 68 -13 28 -35 55 -53 65 l-31 19 36 46
c55 73 141 221 179 310 37 87 76 215 76 251 0 19 4 22 28 17 151 -30 480 -40
615 -17 150 24 293 83 424 173 77 53 228 203 306 305 102 133 222 355 307 567
79 198 210 626 210 685 0 15 15 17 128 17 342 -1 605 152 676 394 35 115 14
301 -49 438 -14 30 -25 56 -25 58 0 2 28 22 63 46 167 113 301 287 413 539
111 250 142 396 151 716 4 143 2 247 -6 317 l-13 106 49 62 c180 232 265 499
249 788 -8 142 -25 220 -75 325 -88 189 -200 307 -356 376 l-45 20 0 54 c0
213 -86 432 -231 589 -116 125 -318 227 -493 249 l-95 12 -50 72 c-61 86 -183
182 -316 249 -120 60 -177 74 -325 81 -161 7 -262 -11 -373 -69 -196 -102
-411 -382 -476 -618 -58 -210 -97 -465 -108 -695 l-6 -144 -63 -37 c-115 -67
-216 -165 -341 -331 -124 -164 -178 -267 -213 -403 -76 -298 -78 -732 -5
-1016 69 -265 221 -541 368 -668 l52 -45 -23 -28 c-107 -134 -141 -212 -149
-333 -6 -102 12 -191 58 -283 72 -144 160 -238 336 -363 113 -80 111 -43 22
-354 -66 -235 -105 -329 -173 -423 -91 -128 -144 -157 -278 -157 -115 0 -297
56 -374 115 l-31 24 23 87 c37 139 64 318 64 428 0 164 -36 347 -87 451 -31
62 -107 170 -132 187 -10 7 -26 29 -36 48 -31 60 -90 143 -143 199 l-50 53 14
41 c76 215 50 620 -56 877 -73 176 -208 344 -382 475 -57 43 -105 79 -107 81
-2 2 24 33 58 70 79 87 121 169 121 240 0 51 3 57 77 151 209 268 293 442 293
613 -1 203 -187 299 -393 201 -95 -45 -198 -127 -375 -295 -140 -133 -156
-145 -180 -139 -15 4 -51 7 -81 7 -41 -1 -62 -8 -95 -31 l-41 -29 -26 56 -26
56 76 49 c109 70 223 186 247 252 16 42 30 60 76 92 31 23 70 63 89 93 29 45
34 62 36 121 l1 69 93 82 c51 44 107 100 125 123 58 76 54 181 -8 240 -45 42
-64 50 -133 58 -119 14 -244 -24 -430 -130 -104 -60 -113 -63 -176 -63 -68 1
-97 -10 -174 -62 -36 -24 -47 -26 -112 -22 -59 3 -73 7 -73 20 0 31 -52 186
-89 266 -57 122 -170 284 -251 359 -40 37 -103 82 -144 103 l-74 38 -23 95
c-37 154 -123 313 -228 424 -77 82 -236 208 -332 263 l-79 46 22 36 c12 21 27
46 34 57 17 28 26 104 17 138 -7 22 -2 43 24 95 103 210 122 325 71 413 l-27
46 28 84 c70 206 63 349 -22 437 -48 51 -97 72 -165 72 -48 0 -67 -6 -112 -32z
m-5825 -11918 l21 -34 -23 -99 c-28 -125 -47 -314 -38 -381 8 -56 27 -99 58
-134 20 -21 20 -24 4 -75 -9 -28 -19 -71 -23 -94 l-6 -42 -33 94 c-18 52 -47
120 -66 152 -46 78 -152 182 -221 218 l-58 30 54 55 c29 30 68 77 86 103 38
58 120 230 144 304 13 40 23 54 44 61 l27 9 5 -66 c3 -41 13 -79 25 -101z
m2905 -130 c30 -16 243 -68 331 -81 44 -6 79 -13 79 -15 0 -1 -24 -37 -54 -78
-67 -94 -90 -151 -83 -208 2 -24 8 -50 11 -59 4 -10 -11 -39 -45 -82 -49 -64
-69 -75 -69 -39 0 31 -66 156 -107 202 -23 25 -65 61 -96 80 l-55 35 21 40
c15 28 22 65 25 128 2 48 9 87 14 87 5 0 18 -5 28 -10z m4400 -202 c0 -4 -9
-8 -20 -8 -15 0 -20 7 -20 27 0 25 0 26 20 8 11 -10 20 -22 20 -27z m-5765
-12 c17 -6 31 -11 32 -12 2 0 14 -44 27 -97 43 -170 101 -243 201 -254 53 -7
61 -22 41 -80 -62 -175 -68 -474 -21 -1038 33 -397 40 -833 16 -990 -22 -147
-55 -239 -105 -290 -39 -41 -47 -45 -90 -45 -65 0 -99 34 -116 116 -15 69 -9
277 15 514 21 206 21 422 0 529 -48 250 -183 454 -357 542 -47 24 -58 34 -53
47 32 73 55 194 55 281 0 28 7 44 29 65 67 64 111 213 111 375 0 88 1 90 29
110 32 23 95 141 112 209 8 35 13 42 27 37 9 -4 31 -12 47 -19z m8413 -203
c44 -27 51 -94 14 -126 -11 -9 -51 -16 -112 -20 -115 -7 -186 -39 -237 -105
-69 -90 -78 -190 -38 -428 33 -197 33 -257 0 -289 -29 -30 -81 -34 -89 -7 -2
9 -10 42 -16 74 -6 31 -26 103 -44 160 -103 317 -20 601 208 713 105 52 254
66 314 28z m-13053 -49 c8 -4 22 -19 31 -35 13 -25 13 -32 0 -57 -15 -30 -53
-50 -192 -102 -161 -60 -272 -157 -343 -298 -55 -109 -90 -127 -151 -75 -31
25 -32 30 -27 80 15 144 184 323 405 429 106 51 228 76 277 58z m10314 -35
c15 -44 14 -53 -9 -80 l-19 -24 -1 68 c0 72 11 86 29 36z m-8009 -79 c-6 -11
-29 -32 -51 -46 -51 -32 -69 -74 -69 -163 0 -85 24 -166 96 -329 59 -131 61
-148 17 -182 -60 -47 -117 -8 -179 125 -48 103 -93 266 -100 363 l-5 67 63 29
c47 22 84 51 148 117 75 77 85 84 88 63 2 -12 -2 -32 -8 -44z m2868 -402 c21
-144 16 -158 -34 -115 -25 22 -28 31 -32 110 l-5 87 30 0 c30 0 30 0 41 -82z
m-1956 -58 c16 0 18 -11 18 -89 0 -201 38 -521 86 -711 21 -86 26 -134 29
-265 2 -88 11 -227 20 -310 8 -82 18 -218 22 -301 9 -219 -14 -292 -97 -314
-100 -27 -157 71 -197 337 -24 161 -24 720 0 1048 10 127 20 325 24 442 l6
212 36 -25 c20 -13 44 -24 53 -24z m-3080 -287 c8 -120 13 -220 11 -222 -5 -8
-44 46 -70 99 -24 48 -28 67 -28 145 0 81 3 95 29 143 16 28 32 52 36 52 4 0
13 -98 22 -217z m6828 37 c-13 -32 -59 -55 -89 -45 -18 5 -61 61 -61 79 0 3
11 6 24 6 13 0 48 13 77 28 l54 28 3 -34 c2 -19 -2 -47 -8 -62z m-7647 78 c12
-6 27 -18 34 -27 34 -44 -6 -177 -58 -195 -39 -13 -77 0 -94 34 -18 34 -19 61
-4 114 20 71 70 102 122 74z m5880 -55 c3 -5 8 -50 12 -101 l7 -93 -32 3 c-41
4 -69 40 -77 96 -5 36 -2 45 25 72 29 29 56 38 65 23z m8476 -108 c102 -24
185 -71 272 -152 130 -123 218 -283 276 -501 36 -134 38 -365 5 -518 -79 -365
-251 -639 -471 -750 -106 -52 -240 -70 -300 -39 -177 91 -261 821 -170 1473
33 235 89 412 146 464 44 40 132 49 242 23z m-11281 -105 c20 -19 42 -77 42
-113 0 -27 -54 -77 -83 -77 -35 0 -75 35 -87 78 -15 56 -13 71 19 103 35 35
77 38 109 9z m4604 -81 c11 -14 23 -42 28 -63 8 -34 5 -40 -42 -96 -27 -33
-53 -60 -57 -60 -14 0 -48 45 -60 79 -32 97 2 175 76 169 25 -2 42 -11 55 -29z
m2897 -132 c1 -49 -34 -87 -80 -87 l-31 0 31 35 c17 19 38 61 48 93 16 54 17
56 24 27 4 -16 7 -47 8 -68z m2813 82 c27 -14 48 -69 48 -124 0 -60 -34 -98
-83 -93 l-32 3 -1 105 c0 58 1 108 3 113 6 10 41 9 65 -4z m-12092 -1556 c42
-84 55 -165 41 -245 -11 -63 -67 -189 -87 -195 -7 -2 -14 66 -22 199 -7 112
-15 241 -18 288 l-5 85 30 -35 c17 -19 44 -63 61 -97z"/>
</g>
</svg>
