<?xml version="1.0" standalone="no"?>
<!DOCTYPE svg PUBLIC "-//W3C//DTD SVG 20010904//EN"
 "http://www.w3.org/TR/2001/REC-SVG-20010904/DTD/svg10.dtd">
<svg version="1.0" xmlns="http://www.w3.org/2000/svg"
 width="512.000000pt" height="512.000000pt" viewBox="0 0 512.000000 512.000000"
 preserveAspectRatio="xMidYMid meet">
<metadata>
Created by potrace 1.14, written by Peter Selinger 2001-2017
</metadata>
<g transform="translate(0.000000,512.000000) scale(0.100000,-0.100000)"
fill="#000000" stroke="none">
<path d="M1195 2659 c-4 -55 -5 -102 -2 -105 3 -3 19 2 36 10 42 22 103 20
134 -4 53 -42 43 -146 -15 -176 -31 -16 -111 -16 -150 1 -11 4 -18 3 -18 -4 0
-18 46 -31 112 -31 55 0 63 3 94 34 31 31 34 40 34 91 0 67 -10 89 -50 110
-33 17 -102 20 -131 5 -18 -10 -19 -7 -19 54 0 98 -2 96 101 96 53 0 89 4 89
10 0 6 -41 10 -104 10 l-104 0 -7 -101z"/>
<path d="M1591 2709 c-34 -28 -61 -57 -61 -65 0 -10 22 2 58 32 l57 47 3 -187
c2 -156 5 -186 17 -186 13 0 15 31 15 205 0 170 -2 205 -14 205 -8 0 -42 -23
-75 -51z"/>
<path d="M1892 2745 c-18 -8 -31 -19 -27 -24 3 -6 19 -4 40 5 62 25 143 10
159 -31 24 -64 -12 -136 -120 -241 -46 -44 -84 -86 -84 -92 0 -9 36 -12 120
-12 73 0 120 4 120 10 0 6 -41 10 -102 10 l-102 0 82 84 c80 82 121 148 122
194 0 37 -28 88 -56 101 -34 15 -112 13 -152 -4z"/>
<path d="M2845 2659 c-4 -55 -5 -102 -2 -105 3 -3 19 2 36 10 42 22 103 20
134 -4 53 -42 43 -146 -15 -176 -31 -16 -111 -16 -150 1 -11 4 -18 3 -18 -4 0
-18 46 -31 112 -31 55 0 63 3 94 34 31 31 34 40 34 91 0 67 -10 89 -50 110
-33 17 -102 20 -131 5 -18 -10 -19 -7 -19 54 0 98 -2 96 101 96 53 0 89 4 89
10 0 6 -41 10 -104 10 l-104 0 -7 -101z"/>
<path d="M3241 2709 c-34 -28 -61 -57 -61 -65 0 -10 22 2 58 32 l57 47 3 -187
c2 -156 5 -186 17 -186 13 0 15 31 15 205 0 170 -2 205 -14 205 -8 0 -42 -23
-75 -51z"/>
<path d="M3542 2745 c-18 -8 -31 -19 -27 -24 3 -6 19 -4 40 5 62 25 143 10
159 -31 24 -64 -12 -136 -120 -241 -46 -44 -84 -86 -84 -92 0 -9 36 -12 120
-12 73 0 120 4 120 10 0 6 -41 10 -102 10 l-102 0 82 84 c80 82 121 148 122
194 0 37 -28 88 -56 101 -34 15 -112 13 -152 -4z"/>
<path d="M2337 2643 c-4 -4 20 -34 53 -68 l60 -61 -60 -59 c-33 -33 -60 -63
-60 -67 0 -21 30 -3 82 49 l58 57 60 -59 c33 -32 63 -56 67 -52 4 4 -20 34
-52 67 l-59 60 59 60 c39 40 56 63 49 70 -6 6 -30 -10 -69 -50 l-59 -60 -61
60 c-34 33 -64 57 -68 53z"/>
</g>
</svg>
