<svg width="366" height="225" viewBox="0 0 366 225" fill="none" xmlns="http://www.w3.org/2000/svg">
<rect y="0.887695" width="366" height="224" rx="16" fill="url(#paint0_linear_10_769)" fill-opacity="0.7"/>
<path d="M208.759 28.8877V20.1604H212.202C212.861 20.1604 213.423 20.2783 213.889 20.5141C214.358 20.7471 214.714 21.078 214.959 21.507C215.206 21.9331 215.33 22.4346 215.33 23.0113C215.33 23.5908 215.205 24.0894 214.955 24.507C214.705 24.9218 214.342 25.24 213.868 25.4616C213.396 25.6831 212.825 25.7939 212.155 25.7939H209.849V24.311H211.857C212.209 24.311 212.501 24.2627 212.734 24.1661C212.967 24.0695 213.141 23.9246 213.254 23.7314C213.371 23.5383 213.429 23.2982 213.429 23.0113C213.429 22.7215 213.371 22.4772 213.254 22.2783C213.141 22.0795 212.966 21.9289 212.73 21.8266C212.497 21.7215 212.203 21.6689 211.848 21.6689H210.604V28.8877H208.759ZM213.472 24.9161L215.641 28.8877H213.604L211.482 24.9161H213.472ZM219.477 29.0155C218.804 29.0155 218.224 28.8792 217.738 28.6064C217.255 28.3309 216.883 27.9417 216.622 27.4388C216.36 26.9331 216.23 26.3351 216.23 25.6448C216.23 24.9715 216.36 24.3806 216.622 23.8721C216.883 23.3635 217.251 22.9672 217.725 22.6831C218.203 22.3991 218.762 22.257 219.404 22.257C219.836 22.257 220.238 22.3266 220.61 22.4658C220.985 22.6022 221.312 22.8081 221.591 23.0837C221.872 23.3593 222.091 23.7059 222.247 24.1235C222.403 24.5383 222.481 25.0241 222.481 25.5809V26.0795H216.954V24.9545H220.772C220.772 24.6931 220.716 24.4616 220.602 24.2599C220.488 24.0581 220.331 23.9005 220.129 23.7868C219.93 23.6704 219.699 23.6121 219.434 23.6121C219.159 23.6121 218.914 23.676 218.701 23.8039C218.491 23.9289 218.326 24.0979 218.207 24.311C218.088 24.5212 218.027 24.7556 218.024 25.0141V26.0837C218.024 26.4076 218.083 26.6874 218.203 26.9232C218.325 27.159 218.497 27.3408 218.718 27.4687C218.94 27.5965 219.203 27.6604 219.507 27.6604C219.708 27.6604 219.893 27.632 220.061 27.5752C220.228 27.5184 220.372 27.4331 220.491 27.3195C220.61 27.2059 220.701 27.0667 220.764 26.9019L222.443 27.0127C222.358 27.4161 222.183 27.7684 221.919 28.0695C221.657 28.3678 221.319 28.6008 220.904 28.7684C220.493 28.9331 220.017 29.0155 219.477 29.0155ZM229.112 24.2087L227.45 24.311C227.422 24.1689 227.36 24.0411 227.267 23.9275C227.173 23.811 227.049 23.7187 226.896 23.6505C226.745 23.5795 226.565 23.5439 226.355 23.5439C226.074 23.5439 225.836 23.6036 225.643 23.7229C225.45 23.8394 225.353 23.9956 225.353 24.1917C225.353 24.3479 225.416 24.48 225.541 24.588C225.666 24.6959 225.88 24.7826 226.184 24.8479L227.369 25.0866C228.005 25.2172 228.48 25.4275 228.792 25.7172C229.105 26.007 229.261 26.3877 229.261 26.8593C229.261 27.2883 229.135 27.6647 228.882 27.9885C228.632 28.3124 228.288 28.5653 227.85 28.7471C227.416 28.926 226.914 29.0155 226.346 29.0155C225.48 29.0155 224.789 28.8351 224.275 28.4743C223.764 28.1107 223.464 27.6164 223.376 26.9914L225.162 26.8976C225.216 27.1618 225.346 27.3635 225.554 27.5028C225.761 27.6391 226.027 27.7073 226.35 27.7073C226.669 27.7073 226.924 27.6462 227.118 27.5241C227.314 27.3991 227.413 27.2385 227.416 27.0425C227.413 26.8778 227.343 26.7428 227.207 26.6377C227.071 26.5297 226.86 26.4474 226.576 26.3905L225.443 26.1647C224.804 26.0368 224.328 25.8153 224.015 25.4999C223.706 25.1846 223.551 24.7826 223.551 24.2939C223.551 23.8735 223.664 23.5113 223.892 23.2073C224.122 22.9033 224.444 22.6689 224.859 22.5042C225.277 22.3394 225.765 22.257 226.325 22.257C227.152 22.257 227.802 22.4317 228.277 22.7812C228.754 23.1306 229.032 23.6064 229.112 24.2087ZM234.602 26.1008V22.3422H236.417V28.8877H234.674V27.6988H234.606C234.458 28.0823 234.212 28.3905 233.869 28.6235C233.528 28.8564 233.112 28.9729 232.62 28.9729C232.183 28.9729 231.798 28.8735 231.465 28.6746C231.133 28.4758 230.873 28.1931 230.685 27.8266C230.501 27.4601 230.407 27.0212 230.404 26.5099V22.3422H232.219V26.186C232.222 26.5724 232.326 26.8778 232.531 27.1022C232.735 27.3266 233.009 27.4388 233.353 27.4388C233.572 27.4388 233.776 27.3891 233.967 27.2897C234.157 27.1874 234.31 27.0368 234.427 26.838C234.546 26.6391 234.604 26.3934 234.602 26.1008ZM239.684 20.1604V28.8877H237.869V20.1604H239.684ZM244.62 22.3422V23.7059H240.678V22.3422H244.62ZM241.573 20.7741H243.388V26.8763C243.388 27.0439 243.414 27.1746 243.465 27.2684C243.516 27.3593 243.587 27.4232 243.678 27.4601C243.772 27.4971 243.88 27.5155 244.002 27.5155C244.087 27.5155 244.173 27.5084 244.258 27.4942C244.343 27.4772 244.408 27.4644 244.454 27.4559L244.739 28.8067C244.648 28.8351 244.521 28.8678 244.356 28.9047C244.191 28.9445 243.991 28.9687 243.755 28.9772C243.317 28.9942 242.934 28.936 242.604 28.8025C242.278 28.6689 242.023 28.4616 241.842 28.1803C241.66 27.8991 241.57 27.5439 241.573 27.115V20.7741ZM246.864 28.9985C246.582 28.9985 246.341 28.8991 246.139 28.7002C245.94 28.4985 245.841 28.257 245.841 27.9758C245.841 27.6974 245.94 27.4587 246.139 27.2599C246.341 27.061 246.582 26.9616 246.864 26.9616C247.136 26.9616 247.375 27.061 247.58 27.2599C247.784 27.4587 247.886 27.6974 247.886 27.9758C247.886 28.1633 247.838 28.3351 247.741 28.4914C247.648 28.6448 247.524 28.7684 247.371 28.8621C247.217 28.953 247.048 28.9985 246.864 28.9985ZM246.864 24.4133C246.582 24.4133 246.341 24.3138 246.139 24.115C245.94 23.9161 245.841 23.6746 245.841 23.3905C245.841 23.1121 245.94 22.8749 246.139 22.6789C246.341 22.48 246.582 22.3806 246.864 22.3806C247.136 22.3806 247.375 22.48 247.58 22.6789C247.784 22.8749 247.886 23.1121 247.886 23.3905C247.886 23.5809 247.838 23.7542 247.741 23.9104C247.648 24.0638 247.524 24.186 247.371 24.2769C247.217 24.3678 247.048 24.4133 246.864 24.4133Z" fill="#939393"/>
<path d="M255.057 29.007C254.608 29.0042 254.175 28.9289 253.757 28.7812C253.342 28.6334 252.97 28.3934 252.641 28.061C252.311 27.7286 252.05 27.2883 251.857 26.74C251.666 26.1917 251.571 25.5184 251.571 24.7201C251.574 23.9871 251.658 23.3323 251.822 22.7556C251.99 22.176 252.229 21.6846 252.538 21.2812C252.851 20.8778 253.224 20.5709 253.659 20.3607C254.094 20.1476 254.581 20.0411 255.121 20.0411C255.703 20.0411 256.217 20.1547 256.663 20.382C257.109 20.6064 257.467 20.9118 257.737 21.2982C258.01 21.6846 258.175 22.1178 258.232 22.5979H256.412C256.341 22.2939 256.192 22.0553 255.964 21.882C255.737 21.7087 255.456 21.6221 255.121 21.6221C254.553 21.6221 254.121 21.8692 253.825 22.3635C253.533 22.8579 253.384 23.5297 253.378 24.3792H253.438C253.568 24.1206 253.744 23.9005 253.966 23.7187C254.19 23.534 254.445 23.3934 254.729 23.2968C255.016 23.1974 255.318 23.1476 255.636 23.1476C256.153 23.1476 256.614 23.2698 257.017 23.5141C257.42 23.7556 257.739 24.088 257.972 24.5113C258.205 24.9346 258.321 25.4189 258.321 25.9644C258.321 26.5553 258.183 27.0809 257.908 27.5411C257.635 28.0013 257.253 28.3621 256.761 28.6235C256.273 28.882 255.705 29.0099 255.057 29.007ZM255.048 27.5581C255.332 27.5581 255.587 27.49 255.811 27.3536C256.036 27.2172 256.212 27.0326 256.339 26.7996C256.467 26.5667 256.531 26.3053 256.531 26.0155C256.531 25.7258 256.467 25.4658 256.339 25.2357C256.214 25.0056 256.041 24.8224 255.82 24.686C255.598 24.5496 255.345 24.4814 255.061 24.4814C254.848 24.4814 254.651 24.5212 254.469 24.6008C254.29 24.6803 254.132 24.7911 253.996 24.9331C253.862 25.0752 253.757 25.24 253.68 25.4275C253.604 25.6121 253.565 25.8096 253.565 26.0198C253.565 26.301 253.629 26.5581 253.757 26.7911C253.888 27.0241 254.064 27.2101 254.286 27.3493C254.51 27.4885 254.764 27.5581 255.048 27.5581ZM262.787 20.0411C263.236 20.0411 263.668 20.1164 264.082 20.267C264.5 20.4175 264.872 20.6576 265.199 20.9871C265.528 21.3167 265.788 21.7542 265.979 22.2996C266.172 22.8422 266.27 23.5084 266.273 24.2982C266.273 25.0397 266.189 25.7016 266.021 26.284C265.857 26.8635 265.619 27.3564 265.31 27.7627C265 28.1689 264.626 28.4786 264.189 28.6917C263.751 28.9019 263.263 29.007 262.723 29.007C262.141 29.007 261.626 28.8948 261.18 28.6704C260.734 28.4431 260.375 28.1349 260.102 27.7456C259.832 27.3536 259.669 26.9133 259.612 26.4246H261.432C261.503 26.7428 261.652 26.99 261.879 27.1661C262.107 27.3394 262.388 27.426 262.723 27.426C263.291 27.426 263.723 27.1789 264.018 26.6846C264.314 26.1874 264.463 25.507 264.466 24.6434H264.406C264.276 24.8991 264.099 25.1192 263.878 25.3039C263.656 25.4857 263.402 25.6263 263.115 25.7258C262.831 25.8252 262.528 25.8749 262.207 25.8749C261.693 25.8749 261.234 25.7542 260.831 25.5127C260.428 25.2712 260.109 24.9388 259.876 24.5155C259.643 24.0922 259.527 23.6093 259.527 23.0667C259.524 22.4814 259.659 21.9601 259.932 21.5028C260.205 21.0454 260.585 20.6874 261.074 20.4289C261.565 20.1675 262.136 20.0383 262.787 20.0411ZM262.8 21.49C262.513 21.49 262.257 21.5581 262.033 21.6945C261.811 21.8309 261.635 22.0141 261.504 22.2442C261.376 22.4743 261.314 22.7314 261.317 23.0155C261.317 23.3025 261.379 23.561 261.504 23.7911C261.632 24.0184 261.805 24.2002 262.024 24.3366C262.246 24.4701 262.499 24.5368 262.783 24.5368C262.996 24.5368 263.193 24.4971 263.375 24.4175C263.557 24.338 263.714 24.2286 263.848 24.0894C263.984 23.9474 264.091 23.784 264.168 23.5993C264.244 23.4147 264.283 23.2187 264.283 23.0113C264.28 22.7357 264.214 22.4829 264.087 22.2528C263.959 22.0226 263.783 21.838 263.558 21.6988C263.334 21.5596 263.081 21.49 262.8 21.49ZM272.328 27.2513V26.7911C272.328 26.4417 272.402 26.1206 272.55 25.828C272.7 25.5326 272.918 25.2968 273.202 25.1206C273.489 24.9417 273.838 24.8522 274.25 24.8522C274.668 24.8522 275.018 24.9403 275.303 25.1164C275.589 25.2925 275.805 25.5283 275.95 25.8238C276.098 26.1164 276.172 26.4388 276.172 26.7911V27.2513C276.172 27.6008 276.098 27.9232 275.95 28.2187C275.803 28.5113 275.585 28.7456 275.298 28.9218C275.011 29.1008 274.662 29.1903 274.25 29.1903C273.832 29.1903 273.482 29.1008 273.197 28.9218C272.913 28.7456 272.697 28.5113 272.55 28.2187C272.402 27.9232 272.328 27.6008 272.328 27.2513ZM273.568 26.7911V27.2513C273.568 27.453 273.616 27.6434 273.713 27.8224C273.813 28.0013 273.991 28.0908 274.25 28.0908C274.509 28.0908 274.685 28.0028 274.778 27.8266C274.875 27.6505 274.923 27.4587 274.923 27.2513V26.7911C274.923 26.5837 274.878 26.3905 274.787 26.2116C274.696 26.0326 274.517 25.9431 274.25 25.9431C273.994 25.9431 273.817 26.0326 273.717 26.2116C273.618 26.3905 273.568 26.5837 273.568 26.7911ZM267.849 22.257V21.7968C267.849 21.4445 267.925 21.1221 268.075 20.8295C268.226 20.534 268.443 20.2982 268.727 20.1221C269.014 19.9459 269.361 19.8579 269.767 19.8579C270.188 19.8579 270.54 19.9459 270.824 20.1221C271.108 20.2982 271.324 20.534 271.472 20.8295C271.619 21.1221 271.693 21.4445 271.693 21.7968V22.257C271.693 22.6093 271.618 22.9317 271.467 23.2243C271.32 23.517 271.102 23.7513 270.815 23.9275C270.531 24.1008 270.182 24.1874 269.767 24.1874C269.352 24.1874 269.001 24.0993 268.714 23.9232C268.43 23.7442 268.214 23.5099 268.067 23.2201C267.922 22.9275 267.849 22.6064 267.849 22.257ZM269.098 21.7968V22.257C269.098 22.4644 269.146 22.6562 269.243 22.8323C269.342 23.0084 269.517 23.0965 269.767 23.0965C270.028 23.0965 270.206 23.0084 270.3 22.8323C270.396 22.6562 270.445 22.4644 270.445 22.257V21.7968C270.445 21.5894 270.399 21.3962 270.308 21.2172C270.217 21.0383 270.037 20.9488 269.767 20.9488C269.514 20.9488 269.339 21.0397 269.243 21.2215C269.146 21.4033 269.098 21.5951 269.098 21.7968ZM268.412 28.8877L274.412 20.1604H275.528L269.528 28.8877H268.412Z" fill="white"/>
<g clip-path="url(#clip0_10_769)">
<line opacity="0.5" x1="16" y1="88.3042" x2="342" y2="88.3042" stroke="#544F60" stroke-width="0.5"/>
<line opacity="0.5" x1="16" y1="139.971" x2="342" y2="139.971" stroke="#544F60" stroke-width="0.5"/>
<path d="M67.1802 133.918C53.0049 135.5 23.4307 136.943 16 142.052V191L353 191V96.9938C334.709 100.62 273.119 77.7012 187.785 103.263C178.78 105.961 116.908 109.691 103.19 125.018C89.4718 140.345 84.8993 131.94 67.1802 133.918Z" fill="url(#paint1_linear_10_769)" fill-opacity="0.5" style="mix-blend-mode:color-dodge"/>
<line x1="246.5" y1="191" x2="246.5" y2="38" stroke="white"/>
<circle cx="247.078" cy="91.0779" r="4.07787" fill="#904372" stroke="white" stroke-width="2"/>
</g>
<path d="M16.814 199.034H18.75L20.917 205.183H20.939L23.051 199.034H24.965V206.888H23.656V200.827H23.634L21.456 206.888H20.323L18.145 200.827H18.123V206.888H16.814V199.034Z" fill="#767676"/>
<path d="M68.1925 199.034H74.5505V200.222H72.0535V206.888H70.6785V200.222H68.1925V199.034Z" fill="#767676"/>
<path d="M115.855 199.034H117.252L118.671 205.04H118.693L120.277 199.034H121.685L123.225 205.04H123.247L124.71 199.034H126.107L123.94 206.888H122.543L120.97 200.882H120.948L119.342 206.888H117.923L115.855 199.034Z" fill="#767676"/>
<path d="M169.455 199.034H175.813V200.222H173.316V206.888H171.941V200.222H169.455V199.034Z" fill="#767676"/>
<path d="M221.571 199.034H226.994V200.222H222.946V202.279H226.499V203.401H222.946V206.888H221.571V199.034Z" fill="#767676"/>
<path d="M273.105 204.27C273.105 204.57 273.157 204.827 273.259 205.04C273.362 205.252 273.505 205.428 273.688 205.568C273.872 205.7 274.081 205.799 274.315 205.865C274.557 205.923 274.818 205.953 275.096 205.953C275.397 205.953 275.654 205.92 275.866 205.854C276.079 205.78 276.251 205.689 276.383 205.579C276.515 205.469 276.611 205.344 276.669 205.205C276.728 205.058 276.757 204.911 276.757 204.765C276.757 204.464 276.688 204.244 276.548 204.105C276.416 203.958 276.27 203.855 276.108 203.797C275.83 203.694 275.503 203.599 275.129 203.511C274.763 203.415 274.308 203.294 273.765 203.148C273.428 203.06 273.146 202.946 272.918 202.807C272.698 202.66 272.522 202.499 272.39 202.323C272.258 202.147 272.163 201.96 272.104 201.762C272.053 201.564 272.027 201.362 272.027 201.157C272.027 200.761 272.108 200.42 272.269 200.134C272.438 199.84 272.658 199.598 272.929 199.408C273.201 199.217 273.509 199.078 273.853 198.99C274.198 198.894 274.546 198.847 274.898 198.847C275.309 198.847 275.694 198.902 276.053 199.012C276.42 199.114 276.739 199.272 277.01 199.485C277.289 199.697 277.509 199.961 277.67 200.277C277.832 200.585 277.912 200.944 277.912 201.355H276.537C276.501 200.849 276.328 200.493 276.02 200.288C275.712 200.075 275.32 199.969 274.843 199.969C274.682 199.969 274.517 199.987 274.348 200.024C274.18 200.053 274.026 200.108 273.886 200.189C273.747 200.262 273.63 200.365 273.534 200.497C273.446 200.629 273.402 200.794 273.402 200.992C273.402 201.27 273.487 201.49 273.655 201.652C273.831 201.806 274.059 201.923 274.337 202.004C274.367 202.011 274.48 202.044 274.678 202.103C274.884 202.154 275.111 202.213 275.36 202.279C275.61 202.345 275.852 202.411 276.086 202.477C276.328 202.535 276.501 202.579 276.603 202.609C276.86 202.689 277.084 202.799 277.274 202.939C277.465 203.078 277.623 203.239 277.747 203.423C277.879 203.599 277.975 203.789 278.033 203.995C278.099 204.2 278.132 204.405 278.132 204.611C278.132 205.051 278.041 205.428 277.857 205.744C277.681 206.052 277.447 206.305 277.153 206.503C276.86 206.701 276.526 206.844 276.152 206.932C275.778 207.027 275.397 207.075 275.008 207.075C274.561 207.075 274.139 207.02 273.743 206.91C273.347 206.8 273.003 206.631 272.709 206.404C272.416 206.176 272.181 205.887 272.005 205.535C271.829 205.175 271.738 204.754 271.73 204.27H273.105Z" fill="#767676"/>
<path d="M312.803 199.034H319.161V200.222H316.664V206.888H315.289V200.222H312.803V199.034ZM321.277 207.042C320.823 207.042 320.416 206.968 320.056 206.822C319.704 206.668 319.404 206.459 319.154 206.195C318.912 205.931 318.725 205.615 318.593 205.249C318.469 204.882 318.406 204.479 318.406 204.039C318.406 203.606 318.469 203.206 318.593 202.84C318.725 202.473 318.912 202.158 319.154 201.894C319.404 201.63 319.704 201.424 320.056 201.278C320.416 201.124 320.823 201.047 321.277 201.047C321.732 201.047 322.135 201.124 322.487 201.278C322.847 201.424 323.147 201.63 323.389 201.894C323.639 202.158 323.826 202.473 323.95 202.84C324.082 203.206 324.148 203.606 324.148 204.039C324.148 204.479 324.082 204.882 323.95 205.249C323.826 205.615 323.639 205.931 323.389 206.195C323.147 206.459 322.847 206.668 322.487 206.822C322.135 206.968 321.732 207.042 321.277 207.042ZM321.277 206.052C321.556 206.052 321.798 205.993 322.003 205.876C322.209 205.758 322.377 205.604 322.509 205.414C322.641 205.223 322.737 205.01 322.795 204.776C322.861 204.534 322.894 204.288 322.894 204.039C322.894 203.797 322.861 203.555 322.795 203.313C322.737 203.071 322.641 202.858 322.509 202.675C322.377 202.484 322.209 202.33 322.003 202.213C321.798 202.095 321.556 202.037 321.277 202.037C320.999 202.037 320.757 202.095 320.551 202.213C320.346 202.33 320.177 202.484 320.045 202.675C319.913 202.858 319.814 203.071 319.748 203.313C319.69 203.555 319.66 203.797 319.66 204.039C319.66 204.288 319.69 204.534 319.748 204.776C319.814 205.01 319.913 205.223 320.045 205.414C320.177 205.604 320.346 205.758 320.551 205.876C320.757 205.993 320.999 206.052 321.277 206.052ZM330.548 206.888H329.36V206.118H329.338C329.169 206.448 328.924 206.686 328.601 206.833C328.278 206.972 327.937 207.042 327.578 207.042C327.131 207.042 326.738 206.965 326.401 206.811C326.071 206.649 325.796 206.433 325.576 206.162C325.356 205.89 325.191 205.571 325.081 205.205C324.971 204.831 324.916 204.431 324.916 204.006C324.916 203.492 324.986 203.049 325.125 202.675C325.264 202.301 325.448 201.993 325.675 201.751C325.91 201.509 326.174 201.333 326.467 201.223C326.768 201.105 327.072 201.047 327.38 201.047C327.556 201.047 327.736 201.065 327.919 201.102C328.102 201.131 328.278 201.182 328.447 201.256C328.616 201.329 328.77 201.424 328.909 201.542C329.056 201.652 329.177 201.784 329.272 201.938H329.294V199.034H330.548V206.888ZM326.17 204.105C326.17 204.347 326.199 204.585 326.258 204.82C326.324 205.054 326.419 205.263 326.544 205.447C326.676 205.63 326.841 205.777 327.039 205.887C327.237 205.997 327.472 206.052 327.743 206.052C328.022 206.052 328.26 205.993 328.458 205.876C328.663 205.758 328.828 205.604 328.953 205.414C329.085 205.223 329.18 205.01 329.239 204.776C329.305 204.534 329.338 204.288 329.338 204.039C329.338 203.408 329.195 202.917 328.909 202.565C328.63 202.213 328.249 202.037 327.765 202.037C327.472 202.037 327.222 202.099 327.017 202.224C326.819 202.341 326.654 202.499 326.522 202.697C326.397 202.887 326.306 203.107 326.247 203.357C326.196 203.599 326.17 203.848 326.17 204.105ZM336.679 205.623C336.679 205.777 336.697 205.887 336.734 205.953C336.778 206.019 336.858 206.052 336.976 206.052C337.012 206.052 337.056 206.052 337.108 206.052C337.159 206.052 337.218 206.044 337.284 206.03V206.899C337.24 206.913 337.181 206.928 337.108 206.943C337.042 206.965 336.972 206.983 336.899 206.998C336.825 207.012 336.752 207.023 336.679 207.031C336.605 207.038 336.543 207.042 336.492 207.042C336.235 207.042 336.022 206.99 335.854 206.888C335.685 206.785 335.575 206.605 335.524 206.349C335.274 206.591 334.966 206.767 334.6 206.877C334.24 206.987 333.892 207.042 333.555 207.042C333.298 207.042 333.052 207.005 332.818 206.932C332.583 206.866 332.374 206.767 332.191 206.635C332.015 206.495 331.872 206.323 331.762 206.118C331.659 205.905 331.608 205.659 331.608 205.381C331.608 205.029 331.67 204.743 331.795 204.523C331.927 204.303 332.095 204.13 332.301 204.006C332.513 203.881 332.748 203.793 333.005 203.742C333.269 203.683 333.533 203.639 333.797 203.61C334.024 203.566 334.24 203.536 334.446 203.522C334.651 203.5 334.831 203.467 334.985 203.423C335.146 203.379 335.271 203.313 335.359 203.225C335.454 203.129 335.502 202.99 335.502 202.807C335.502 202.645 335.461 202.513 335.381 202.411C335.307 202.308 335.212 202.231 335.095 202.18C334.985 202.121 334.86 202.084 334.721 202.07C334.581 202.048 334.449 202.037 334.325 202.037C333.973 202.037 333.683 202.11 333.456 202.257C333.228 202.403 333.1 202.631 333.071 202.939H331.817C331.839 202.572 331.927 202.268 332.081 202.026C332.235 201.784 332.429 201.589 332.664 201.443C332.906 201.296 333.177 201.193 333.478 201.135C333.778 201.076 334.086 201.047 334.402 201.047C334.68 201.047 334.955 201.076 335.227 201.135C335.498 201.193 335.74 201.289 335.953 201.421C336.173 201.553 336.349 201.725 336.481 201.938C336.613 202.143 336.679 202.396 336.679 202.697V205.623ZM335.425 204.039C335.234 204.163 334.999 204.24 334.721 204.27C334.442 204.292 334.163 204.328 333.885 204.38C333.753 204.402 333.624 204.435 333.5 204.479C333.375 204.515 333.265 204.57 333.17 204.644C333.074 204.71 332.997 204.801 332.939 204.919C332.887 205.029 332.862 205.164 332.862 205.326C332.862 205.465 332.902 205.582 332.983 205.678C333.063 205.773 333.159 205.85 333.269 205.909C333.386 205.96 333.511 205.997 333.643 206.019C333.782 206.041 333.907 206.052 334.017 206.052C334.156 206.052 334.306 206.033 334.468 205.997C334.629 205.96 334.779 205.898 334.919 205.81C335.065 205.722 335.186 205.612 335.282 205.48C335.377 205.34 335.425 205.172 335.425 204.974V204.039ZM337.401 201.201H338.776L340.261 205.447H340.283L341.724 201.201H343.033L340.822 207.196C340.719 207.452 340.616 207.698 340.514 207.933C340.418 208.167 340.297 208.373 340.151 208.549C340.011 208.732 339.835 208.875 339.623 208.978C339.41 209.088 339.139 209.143 338.809 209.143C338.515 209.143 338.226 209.121 337.94 209.077V208.021C338.042 208.035 338.141 208.05 338.237 208.065C338.332 208.087 338.431 208.098 338.534 208.098C338.68 208.098 338.801 208.079 338.897 208.043C338.992 208.006 339.069 207.951 339.128 207.878C339.194 207.812 339.249 207.731 339.293 207.636C339.337 207.54 339.377 207.43 339.414 207.306L339.557 206.866L337.401 201.201Z" fill="#767676"/>
<defs>
<linearGradient id="paint0_linear_10_769" x1="-9" y1="0.999025" x2="431.5" y2="125.499" gradientUnits="userSpaceOnUse">
<stop stop-color="#27252D"/>
<stop offset="1" stop-color="#26273B"/>
</linearGradient>
<linearGradient id="paint1_linear_10_769" x1="217.5" y1="91" x2="215" y2="191" gradientUnits="userSpaceOnUse">
<stop stop-color="white"/>
<stop offset="1" stop-color="#F0F0F0" stop-opacity="0.3"/>
</linearGradient>
<clipPath id="clip0_10_769">
<rect x="16" y="36.8877" width="334" height="154" rx="16" fill="white"/>
</clipPath>
</defs>
</svg>
