<svg width="186" height="186" viewBox="0 0 186 186" fill="none" xmlns="http://www.w3.org/2000/svg">
<circle cx="93" cy="93" r="93" fill="#282828"/>
<path d="M29.66 56.72H41.22V58.88H36.68V71H34.18V58.88H29.66V56.72ZM42.5555 56.72H44.8355V62.02H44.8755C45.1555 61.5533 45.5688 61.1667 46.1155 60.86C46.6755 60.54 47.2955 60.38 47.9755 60.38C49.1088 60.38 50.0021 60.6733 50.6555 61.26C51.3088 61.8467 51.6355 62.7267 51.6355 63.9V71H49.3555V64.5C49.3288 63.6867 49.1555 63.1 48.8355 62.74C48.5155 62.3667 48.0155 62.18 47.3355 62.18C46.9488 62.18 46.6021 62.2533 46.2955 62.4C45.9888 62.5333 45.7288 62.7267 45.5155 62.98C45.3021 63.22 45.1355 63.5067 45.0155 63.84C44.8955 64.1733 44.8355 64.5267 44.8355 64.9V71H42.5555V56.72ZM61.1398 64.92C61.1132 64.56 61.0332 64.2133 60.8998 63.88C60.7798 63.5467 60.6065 63.26 60.3798 63.02C60.1665 62.7667 59.8998 62.5667 59.5798 62.42C59.2732 62.26 58.9265 62.18 58.5398 62.18C58.1398 62.18 57.7732 62.2533 57.4398 62.4C57.1198 62.5333 56.8398 62.7267 56.5998 62.98C56.3732 63.22 56.1865 63.5067 56.0398 63.84C55.9065 64.1733 55.8332 64.5333 55.8198 64.92H61.1398ZM55.8198 66.42C55.8198 66.82 55.8732 67.2067 55.9798 67.58C56.0998 67.9533 56.2732 68.28 56.4998 68.56C56.7265 68.84 57.0132 69.0667 57.3598 69.24C57.7065 69.4 58.1198 69.48 58.5998 69.48C59.2665 69.48 59.7998 69.34 60.1998 69.06C60.6132 68.7667 60.9198 68.3333 61.1198 67.76H63.2798C63.1598 68.32 62.9532 68.82 62.6598 69.26C62.3665 69.7 62.0132 70.0733 61.5998 70.38C61.1865 70.6733 60.7198 70.8933 60.1998 71.04C59.6932 71.2 59.1598 71.28 58.5998 71.28C57.7865 71.28 57.0665 71.1467 56.4398 70.88C55.8132 70.6133 55.2798 70.24 54.8398 69.76C54.4132 69.28 54.0865 68.7067 53.8598 68.04C53.6465 67.3733 53.5398 66.64 53.5398 65.84C53.5398 65.1067 53.6532 64.4133 53.8798 63.76C54.1198 63.0933 54.4532 62.5133 54.8798 62.02C55.3198 61.5133 55.8465 61.1133 56.4598 60.82C57.0732 60.5267 57.7665 60.38 58.5398 60.38C59.3532 60.38 60.0798 60.5533 60.7198 60.9C61.3732 61.2333 61.9132 61.68 62.3398 62.24C62.7665 62.8 63.0732 63.4467 63.2598 64.18C63.4598 64.9 63.5132 65.6467 63.4198 66.42H55.8198ZM31.02 85.72H37.84C39.4133 85.72 40.5933 86.06 41.38 86.74C42.1667 87.42 42.56 88.3667 42.56 89.58C42.56 90.26 42.46 90.8267 42.26 91.28C42.06 91.72 41.8267 92.08 41.56 92.36C41.2933 92.6267 41.0267 92.82 40.76 92.94C40.5067 93.06 40.32 93.14 40.2 93.18V93.22C40.4133 93.2467 40.64 93.3133 40.88 93.42C41.1333 93.5267 41.3667 93.7 41.58 93.94C41.7933 94.1667 41.9667 94.4667 42.1 94.84C42.2467 95.2133 42.32 95.68 42.32 96.24C42.32 97.08 42.38 97.8467 42.5 98.54C42.6333 99.22 42.8333 99.7067 43.1 100H40.42C40.2333 99.6933 40.12 99.3533 40.08 98.98C40.0533 98.6067 40.04 98.2467 40.04 97.9C40.04 97.2467 40 96.6867 39.92 96.22C39.84 95.74 39.6933 95.3467 39.48 95.04C39.2667 94.72 38.9733 94.4867 38.6 94.34C38.24 94.1933 37.7733 94.12 37.2 94.12H33.52V100H31.02V85.72ZM33.52 92.22H37.62C38.42 92.22 39.0267 92.0333 39.44 91.66C39.8533 91.2733 40.06 90.7 40.06 89.94C40.06 89.4867 39.9933 89.12 39.86 88.84C39.7267 88.5467 39.54 88.32 39.3 88.16C39.0733 88 38.8067 87.8933 38.5 87.84C38.2067 87.7867 37.9 87.76 37.58 87.76H33.52V92.22ZM51.882 93.92C51.8554 93.56 51.7754 93.2133 51.642 92.88C51.522 92.5467 51.3487 92.26 51.122 92.02C50.9087 91.7667 50.642 91.5667 50.322 91.42C50.0154 91.26 49.6687 91.18 49.282 91.18C48.882 91.18 48.5154 91.2533 48.182 91.4C47.862 91.5333 47.582 91.7267 47.342 91.98C47.1154 92.22 46.9287 92.5067 46.782 92.84C46.6487 93.1733 46.5754 93.5333 46.562 93.92H51.882ZM46.562 95.42C46.562 95.82 46.6154 96.2067 46.722 96.58C46.842 96.9533 47.0154 97.28 47.242 97.56C47.4687 97.84 47.7554 98.0667 48.102 98.24C48.4487 98.4 48.862 98.48 49.342 98.48C50.0087 98.48 50.542 98.34 50.942 98.06C51.3554 97.7667 51.662 97.3333 51.862 96.76H54.022C53.902 97.32 53.6954 97.82 53.402 98.26C53.1087 98.7 52.7554 99.0733 52.342 99.38C51.9287 99.6733 51.462 99.8933 50.942 100.04C50.4354 100.2 49.902 100.28 49.342 100.28C48.5287 100.28 47.8087 100.147 47.182 99.88C46.5554 99.6133 46.022 99.24 45.582 98.76C45.1554 98.28 44.8287 97.7067 44.602 97.04C44.3887 96.3733 44.282 95.64 44.282 94.84C44.282 94.1067 44.3954 93.4133 44.622 92.76C44.862 92.0933 45.1954 91.5133 45.622 91.02C46.062 90.5133 46.5887 90.1133 47.202 89.82C47.8154 89.5267 48.5087 89.38 49.282 89.38C50.0954 89.38 50.822 89.5533 51.462 89.9C52.1154 90.2333 52.6554 90.68 53.082 91.24C53.5087 91.8 53.8154 92.4467 54.002 93.18C54.202 93.9 54.2554 94.6467 54.162 95.42H46.562ZM64.5553 97.7C64.5553 97.98 64.5886 98.18 64.6553 98.3C64.7353 98.42 64.882 98.48 65.0953 98.48C65.162 98.48 65.242 98.48 65.3353 98.48C65.4286 98.48 65.5353 98.4667 65.6553 98.44V100.02C65.5753 100.047 65.4686 100.073 65.3353 100.1C65.2153 100.14 65.0886 100.173 64.9553 100.2C64.822 100.227 64.6886 100.247 64.5553 100.26C64.422 100.273 64.3086 100.28 64.2153 100.28C63.7486 100.28 63.362 100.187 63.0553 100C62.7486 99.8133 62.5486 99.4867 62.4553 99.02C62.002 99.46 61.442 99.78 60.7753 99.98C60.122 100.18 59.4886 100.28 58.8753 100.28C58.4086 100.28 57.962 100.213 57.5353 100.08C57.1086 99.96 56.7286 99.78 56.3953 99.54C56.0753 99.2867 55.8153 98.9733 55.6153 98.6C55.4286 98.2133 55.3353 97.7667 55.3353 97.26C55.3353 96.62 55.4486 96.1 55.6753 95.7C55.9153 95.3 56.222 94.9867 56.5953 94.76C56.982 94.5333 57.4086 94.3733 57.8753 94.28C58.3553 94.1733 58.8353 94.0933 59.3153 94.04C59.7286 93.96 60.122 93.9067 60.4953 93.88C60.8686 93.84 61.1953 93.78 61.4753 93.7C61.7686 93.62 61.9953 93.5 62.1553 93.34C62.3286 93.1667 62.4153 92.9133 62.4153 92.58C62.4153 92.2867 62.342 92.0467 62.1953 91.86C62.062 91.6733 61.8886 91.5333 61.6753 91.44C61.4753 91.3333 61.2486 91.2667 60.9953 91.24C60.742 91.2 60.502 91.18 60.2753 91.18C59.6353 91.18 59.1086 91.3133 58.6953 91.58C58.282 91.8467 58.0486 92.26 57.9953 92.82H55.7153C55.7553 92.1533 55.9153 91.6 56.1953 91.16C56.4753 90.72 56.8286 90.3667 57.2553 90.1C57.6953 89.8333 58.1886 89.6467 58.7353 89.54C59.282 89.4333 59.842 89.38 60.4153 89.38C60.922 89.38 61.422 89.4333 61.9153 89.54C62.4086 89.6467 62.8486 89.82 63.2353 90.06C63.6353 90.3 63.9553 90.6133 64.1953 91C64.4353 91.3733 64.5553 91.8333 64.5553 92.38V97.7ZM62.2753 94.82C61.9286 95.0467 61.502 95.1867 60.9953 95.24C60.4886 95.28 59.982 95.3467 59.4753 95.44C59.2353 95.48 59.002 95.54 58.7753 95.62C58.5486 95.6867 58.3486 95.7867 58.1753 95.92C58.002 96.04 57.862 96.2067 57.7553 96.42C57.662 96.62 57.6153 96.8667 57.6153 97.16C57.6153 97.4133 57.6886 97.6267 57.8353 97.8C57.982 97.9733 58.1553 98.1133 58.3553 98.22C58.5686 98.3133 58.7953 98.38 59.0353 98.42C59.2886 98.46 59.5153 98.48 59.7153 98.48C59.9686 98.48 60.242 98.4467 60.5353 98.38C60.8286 98.3133 61.102 98.2 61.3553 98.04C61.622 97.88 61.842 97.68 62.0153 97.44C62.1886 97.1867 62.2753 96.88 62.2753 96.52V94.82ZM67.0686 85.72H69.3486V100H67.0686V85.72ZM34.74 123.4L29.38 114.72H32.28L36.06 121.12L39.78 114.72H42.58L37.24 123.4V129H34.74V123.4ZM46.5728 129.28C45.7461 129.28 45.0061 129.147 44.3528 128.88C43.7128 128.6 43.1661 128.22 42.7128 127.74C42.2728 127.26 41.9328 126.687 41.6928 126.02C41.4661 125.353 41.3528 124.62 41.3528 123.82C41.3528 123.033 41.4661 122.307 41.6928 121.64C41.9328 120.973 42.2728 120.4 42.7128 119.92C43.1661 119.44 43.7128 119.067 44.3528 118.8C45.0061 118.52 45.7461 118.38 46.5728 118.38C47.3995 118.38 48.1328 118.52 48.7728 118.8C49.4261 119.067 49.9728 119.44 50.4128 119.92C50.8661 120.4 51.2061 120.973 51.4328 121.64C51.6728 122.307 51.7928 123.033 51.7928 123.82C51.7928 124.62 51.6728 125.353 51.4328 126.02C51.2061 126.687 50.8661 127.26 50.4128 127.74C49.9728 128.22 49.4261 128.6 48.7728 128.88C48.1328 129.147 47.3995 129.28 46.5728 129.28ZM46.5728 127.48C47.0795 127.48 47.5195 127.373 47.8928 127.16C48.2661 126.947 48.5728 126.667 48.8128 126.32C49.0528 125.973 49.2261 125.587 49.3328 125.16C49.4528 124.72 49.5128 124.273 49.5128 123.82C49.5128 123.38 49.4528 122.94 49.3328 122.5C49.2261 122.06 49.0528 121.673 48.8128 121.34C48.5728 120.993 48.2661 120.713 47.8928 120.5C47.5195 120.287 47.0795 120.18 46.5728 120.18C46.0661 120.18 45.6261 120.287 45.2528 120.5C44.8795 120.713 44.5728 120.993 44.3328 121.34C44.0928 121.673 43.9128 122.06 43.7928 122.5C43.6861 122.94 43.6328 123.38 43.6328 123.82C43.6328 124.273 43.6861 124.72 43.7928 125.16C43.9128 125.587 44.0928 125.973 44.3328 126.32C44.5728 126.667 44.8795 126.947 45.2528 127.16C45.6261 127.373 46.0661 127.48 46.5728 127.48ZM62.7683 129H60.5283V127.56H60.4883C60.2083 128.08 59.7883 128.5 59.2283 128.82C58.6816 129.127 58.1216 129.28 57.5483 129.28C56.1883 129.28 55.2016 128.947 54.5883 128.28C53.9883 127.6 53.6883 126.58 53.6883 125.22V118.66H55.9683V125C55.9683 125.907 56.1416 126.547 56.4883 126.92C56.8349 127.293 57.3216 127.48 57.9483 127.48C58.4283 127.48 58.8283 127.407 59.1483 127.26C59.4683 127.113 59.7283 126.92 59.9283 126.68C60.1283 126.427 60.2683 126.127 60.3483 125.78C60.4416 125.433 60.4883 125.06 60.4883 124.66V118.66H62.7683V129Z" fill="white" fill-opacity="0.8"/>
<path d="M93 5C93 2.23857 95.2406 -0.0140228 97.998 0.134338C117.114 1.16284 135.494 8.0714 150.59 19.9764C166.997 32.9158 178.568 51.0037 183.439 71.3238C188.309 91.6438 186.194 113.012 177.435 131.983C169.377 149.438 156.126 163.928 139.553 173.51C137.162 174.892 134.144 173.9 132.892 171.439L93.5433 94.0682C93.1861 93.366 93 92.5894 93 91.8016V5Z" fill="url(#paint0_linear_22_339)"/>
<defs>
<linearGradient id="paint0_linear_22_339" x1="93" y1="186" x2="93" y2="0" gradientUnits="userSpaceOnUse">
<stop stop-color="#47326B"/>
<stop offset="0.5" stop-color="#914372"/>
<stop offset="1" stop-color="#AC714F"/>
</linearGradient>
</defs>
</svg>
