<svg width="23" height="23" viewBox="0 0 23 23" fill="none" xmlns="http://www.w3.org/2000/svg">
<path d="M11.5 2.5C10.3181 2.5 9.14778 2.73279 8.05585 3.18508C6.96392 3.63738 5.97177 4.30031 5.13604 5.13604C4.30031 5.97177 3.63738 6.96392 3.18508 8.05585C2.73279 9.14778 2.5 10.3181 2.5 11.5C2.5 12.6819 2.73279 13.8522 3.18508 14.9442C3.63738 16.0361 4.30031 17.0282 5.13604 17.864C5.97177 18.6997 6.96392 19.3626 8.05585 19.8149C9.14778 20.2672 10.3181 20.5 11.5 20.5C13.8869 20.5 16.1761 19.5518 17.864 17.864C19.5518 16.1761 20.5 13.8869 20.5 11.5C20.5 9.11305 19.5518 6.82387 17.864 5.13604C16.1761 3.44821 13.8869 2.5 11.5 2.5ZM0.5 11.5C0.5 5.425 5.425 0.5 11.5 0.5C17.575 0.5 22.5 5.425 22.5 11.5C22.5 17.575 17.575 22.5 11.5 22.5C5.425 22.5 0.5 17.575 0.5 11.5ZM7.5 8V9C7.5 9.13261 7.55268 9.25979 7.64645 9.35355C7.74021 9.44732 7.86739 9.5 8 9.5C8.13261 9.5 8.25979 9.44732 8.35355 9.35355C8.44732 9.25979 8.5 9.13261 8.5 9V8H10.5V9C10.5 9.66304 10.2366 10.2989 9.76777 10.7678C9.29893 11.2366 8.66304 11.5 8 11.5C7.33696 11.5 6.70107 11.2366 6.23223 10.7678C5.76339 10.2989 5.5 9.66304 5.5 9V8H7.5ZM14.5 8V9C14.5 9.13261 14.5527 9.25979 14.6464 9.35355C14.7402 9.44732 14.8674 9.5 15 9.5C15.1326 9.5 15.2598 9.44732 15.3536 9.35355C15.4473 9.25979 15.5 9.13261 15.5 9V8H17.5V9C17.5 9.66304 17.2366 10.2989 16.7678 10.7678C16.2989 11.2366 15.663 11.5 15 11.5C14.337 11.5 13.7011 11.2366 13.2322 10.7678C12.7634 10.2989 12.5 9.66304 12.5 9V8H14.5ZM8.4 13.134L8.9 13.999C9.422 14.9 10.39 15.5 11.5 15.5C12.61 15.5 13.58 14.899 14.1 14L14.6 13.134L16.331 14.135L15.831 15.001C15.392 15.761 14.7606 16.3921 14.0003 16.8308C13.2401 17.2694 12.3777 17.5003 11.5 17.5C10.6223 17.5 9.76014 17.2689 9.00007 16.8301C8.24 16.3913 7.60883 15.7601 7.17 15L6.669 14.135L8.4 13.134Z" fill="url(#paint0_radial_22_996)"/>
<defs>
<radialGradient id="paint0_radial_22_996" cx="0" cy="0" r="1" gradientUnits="userSpaceOnUse" gradientTransform="translate(-0.911078 -13.8673) rotate(62.7689) scale(65.3902 14.7465)">
<stop stop-color="white"/>
<stop offset="1" stop-color="#504747"/>
</radialGradient>
</defs>
</svg>
