<svg width="25" height="25" viewBox="0 0 25 25" fill="none" xmlns="http://www.w3.org/2000/svg">
<path d="M2.5 21.5C3.833 22.122 5.583 22.5 7.5 22.5C9.417 22.5 11.168 22.122 12.5 21.5C13.832 20.878 15.583 20.5 17.5 20.5C19.417 20.5 21.168 20.878 22.5 21.5M12.5 18.5C11.168 19.122 9.417 19.5 7.5 19.5C6.434 19.5 5.42 19.383 4.5 19.173C3.909 19.037 3.613 18.97 3.259 18.689C3.02733 18.4907 2.83558 18.2501 2.694 17.98C2.5 17.573 2.5 17.177 2.5 16.386V5.614C2.5 4.629 3.54 3.953 4.5 4.173C5.42 4.383 6.434 4.5 7.5 4.5C9.417 4.5 11.168 4.122 12.5 3.5C13.832 2.878 15.583 2.5 17.5 2.5C18.566 2.5 19.58 2.617 20.5 2.827C21.091 2.963 21.387 3.031 21.741 3.311C21.943 3.471 22.195 3.787 22.306 4.02C22.5 4.428 22.5 4.823 22.5 5.614V16.386C22.5 17.371 21.46 18.047 20.5 17.827C19.58 17.617 18.566 17.5 17.5 17.5C15.583 17.5 13.832 17.878 12.5 18.5Z" stroke="url(#paint0_radial_22_1003)" stroke-width="1.5" stroke-linecap="round" stroke-linejoin="round"/>
<path d="M6 12V12.009M19 9.992V10.002M15 11C15 11.663 14.7366 12.2989 14.2678 12.7678C13.7989 13.2366 13.163 13.5 12.5 13.5C11.837 13.5 11.2011 13.2366 10.7322 12.7678C10.2634 12.2989 10 11.663 10 11C10 10.337 10.2634 9.70107 10.7322 9.23223C11.2011 8.76339 11.837 8.5 12.5 8.5C13.163 8.5 13.7989 8.76339 14.2678 9.23223C14.7366 9.70107 15 10.337 15 11Z" stroke="url(#paint1_radial_22_1003)" stroke-width="1.5" stroke-linecap="round" stroke-linejoin="round"/>
<defs>
<radialGradient id="paint0_radial_22_1003" cx="0" cy="0" r="1" gradientUnits="userSpaceOnUse" gradientTransform="translate(1.2172 -10.5612) rotate(62.7689) scale(59.4456 13.4059)">
<stop stop-color="white"/>
<stop offset="1" stop-color="#504747"/>
</radialGradient>
<radialGradient id="paint1_radial_22_1003" cx="0" cy="0" r="1" gradientUnits="userSpaceOnUse" gradientTransform="translate(5.16618 5.23469) rotate(36.7738) scale(22.0732 5.86683)">
<stop stop-color="white"/>
<stop offset="1" stop-color="#504747"/>
</radialGradient>
</defs>
</svg>
