<svg width="25" height="25" viewBox="0 0 25 25" fill="none" xmlns="http://www.w3.org/2000/svg">
<path fill-rule="evenodd" clip-rule="evenodd" d="M14.625 20.472C14.403 20.636 14.162 20.772 13.897 20.842C13.151 21.042 12.336 20.744 11.624 20.544C6.851 19.201 3.654 17.098 2.737 13.96C2.005 11.454 2.709 8.94396 4.257 7.38396C5.691 5.93896 7.817 5.35296 9.998 6.29196C11.418 4.38796 13.553 3.83196 15.517 4.36696C17.637 4.94396 19.501 6.76596 20.12 9.30196C20.2413 9.79929 20.3023 10.3056 20.303 10.821C20.559 10.9523 20.799 11.1123 21.023 11.301C22.18 12.28 22.798 13.943 22.453 15.672C22.013 17.878 19.968 19.427 17.043 20.533C16.542 20.723 15.994 20.958 15.447 20.862C15.143 20.808 14.871 20.652 14.625 20.472ZM4.657 13.399C4.122 11.566 4.66 9.81796 5.677 8.79296C6.653 7.80896 8.1 7.44296 9.7 8.37896C10.259 8.70596 10.98 8.51196 11.3 7.95096C12.218 6.33996 13.654 5.93296 14.991 6.29696C16.385 6.67696 17.725 7.92096 18.177 9.77596C18.2323 9.99863 18.269 10.227 18.287 10.461C17.9206 10.5078 17.5633 10.6093 17.227 10.762C16.153 9.71496 14.731 9.50896 13.477 9.97096C12.055 10.494 10.905 11.846 10.637 13.589C10.364 15.374 11.207 17.114 12.776 18.787C12.578 18.737 12.373 18.677 12.166 18.619C7.535 17.316 5.266 15.484 4.657 13.399ZM12.615 13.892C12.775 12.842 13.454 12.111 14.168 11.847C14.828 11.605 15.561 11.732 16.118 12.537C16.201 12.6569 16.307 12.7592 16.4299 12.8379C16.5527 12.9167 16.6899 12.9703 16.8336 12.9957C16.9772 13.021 17.1245 13.0177 17.2669 12.9858C17.4092 12.954 17.5439 12.8942 17.663 12.81C18.463 12.243 19.195 12.375 19.731 12.828C20.313 13.32 20.699 14.24 20.491 15.281C20.266 16.411 19.123 17.609 16.336 18.662C16.159 18.729 15.983 18.801 15.801 18.854C15.648 18.741 15.507 18.614 15.363 18.491C13.105 16.548 12.44 15.031 12.615 13.891V13.892Z" fill="url(#paint0_radial_22_1009)"/>
<defs>
<radialGradient id="paint0_radial_22_1009" cx="0" cy="0" r="1" gradientUnits="userSpaceOnUse" gradientTransform="translate(1.15715 -6.75473) rotate(58.2768) scale(51.9946 12.8897)">
<stop stop-color="white"/>
<stop offset="1" stop-color="#504747"/>
</radialGradient>
</defs>
</svg>
