<svg width="25" height="25" viewBox="0 0 25 25" fill="none" xmlns="http://www.w3.org/2000/svg">
<path d="M21.9688 5.42188H9.3125C8.89766 5.42188 8.5625 5.75703 8.5625 6.17188V11.7031H3.03125C2.61641 11.7031 2.28125 12.0383 2.28125 12.4531V18.8281C2.28125 19.243 2.61641 19.5781 3.03125 19.5781H15.6875C16.1023 19.5781 16.4375 19.243 16.4375 18.8281V13.2969H21.9688C22.3836 13.2969 22.7188 12.9617 22.7188 12.5469V6.17188C22.7188 5.75703 22.3836 5.42188 21.9688 5.42188ZM10.1562 7.01562H14.8438V11.7031H10.1562V7.01562ZM8.5625 17.9844H3.875V13.2969H8.5625V17.9844ZM14.8438 17.9844H10.1562V13.2969H14.8438V17.9844ZM21.125 11.7031H16.4375V7.01562H21.125V11.7031Z" fill="url(#paint0_radial_22_1015)"/>
<defs>
<radialGradient id="paint0_radial_22_1015" cx="0" cy="0" r="1" gradientUnits="userSpaceOnUse" gradientTransform="translate(0.97039 -3.82302) rotate(53.3893) scale(46.6086 12.367)">
<stop stop-color="white"/>
<stop offset="1" stop-color="#504747"/>
</radialGradient>
</defs>
</svg>
