<svg width="25" height="25" viewBox="0 0 25 25" fill="none" xmlns="http://www.w3.org/2000/svg">
<path d="M2.5 8.5C2.5 8.5 6.977 3.5 12.5 3.5C18.023 3.5 22.5 8.5 22.5 8.5" stroke="url(#paint0_radial_22_1025)" stroke-width="1.5" stroke-linecap="round" stroke-linejoin="round"/>
<path d="M22.044 13.545C22.348 13.971 22.5 14.185 22.5 14.5C22.5 14.816 22.348 15.029 22.044 15.455C20.678 17.371 17.189 21.5 12.5 21.5C7.81 21.5 4.322 17.37 2.956 15.455C2.652 15.029 2.5 14.815 2.5 14.5C2.5 14.184 2.652 13.971 2.956 13.545C4.322 11.629 7.811 7.5 12.5 7.5C17.19 7.5 20.678 11.63 22.044 13.545Z" stroke="url(#paint1_radial_22_1025)" stroke-width="1.5" stroke-linecap="round" stroke-linejoin="round"/>
<path d="M15.5 14.5C15.5 13.7044 15.1839 12.9413 14.6213 12.3787C14.0587 11.8161 13.2956 11.5 12.5 11.5C11.7044 11.5 10.9413 11.8161 10.3787 12.3787C9.81607 12.9413 9.5 13.7044 9.5 14.5C9.5 15.2956 9.81607 16.0587 10.3787 16.6213C10.9413 17.1839 11.7044 17.5 12.5 17.5C13.2956 17.5 14.0587 17.1839 14.6213 16.6213C15.1839 16.0587 15.5 15.2956 15.5 14.5Z" stroke="url(#paint2_radial_22_1025)" stroke-width="1.5" stroke-linecap="round" stroke-linejoin="round"/>
<defs>
<radialGradient id="paint0_radial_22_1025" cx="0" cy="0" r="1" gradientUnits="userSpaceOnUse" gradientTransform="translate(1.2172 0.234694) rotate(25.9104) scale(30.241 6.58808)">
<stop stop-color="white"/>
<stop offset="1" stop-color="#504747"/>
</radialGradient>
<radialGradient id="paint1_radial_22_1025" cx="0" cy="0" r="1" gradientUnits="userSpaceOnUse" gradientTransform="translate(1.2172 -1.64286) rotate(53.6779) scale(45.9228 12.1475)">
<stop stop-color="white"/>
<stop offset="1" stop-color="#504747"/>
</radialGradient>
<radialGradient id="paint2_radial_22_1025" cx="0" cy="0" r="1" gradientUnits="userSpaceOnUse" gradientTransform="translate(9.11516 7.58163) rotate(62.7689) scale(17.8337 4.02177)">
<stop stop-color="white"/>
<stop offset="1" stop-color="#504747"/>
</radialGradient>
</defs>
</svg>
