<svg width="26" height="25" viewBox="0 0 26 25" fill="none" xmlns="http://www.w3.org/2000/svg">
<path fill-rule="evenodd" clip-rule="evenodd" d="M9.281 10.2487C8.68426 10.2487 8.11196 10.0117 7.69001 9.58974C7.26805 9.16778 7.031 8.59549 7.031 7.99875V4.71875C7.031 4.12201 7.26805 3.54972 7.69001 3.12776C8.11196 2.7058 8.68426 2.46875 9.281 2.46875H16.781C17.3777 2.46875 17.95 2.7058 18.372 3.12776C18.7939 3.54972 19.031 4.12201 19.031 4.71875V7.99875C19.031 8.29422 18.9728 8.58681 18.8597 8.85979C18.7467 9.13277 18.5809 9.38081 18.372 9.58974C18.1631 9.79867 17.915 9.96441 17.642 10.0775C17.3691 10.1906 17.0765 10.2487 16.781 10.2487H9.281ZM8.531 7.99875C8.531 8.41275 8.867 8.74875 9.281 8.74875H16.781C16.9799 8.74875 17.1707 8.66973 17.3113 8.52908C17.452 8.38843 17.531 8.19766 17.531 7.99875V4.71875C17.531 4.51984 17.452 4.32907 17.3113 4.18842C17.1707 4.04777 16.9799 3.96875 16.781 3.96875H9.281C9.08209 3.96875 8.89132 4.04777 8.75067 4.18842C8.61002 4.32907 8.531 4.51984 8.531 4.71875V7.99875ZM9.281 22.5298C8.68426 22.5298 8.11196 22.2927 7.69001 21.8707C7.26805 21.4488 7.031 20.8765 7.031 20.2798V16.9998C7.031 16.403 7.26805 15.8307 7.69001 15.4088C8.11196 14.9868 8.68426 14.7498 9.281 14.7498H16.781C17.3777 14.7498 17.95 14.9868 18.372 15.4088C18.7939 15.8307 19.031 16.403 19.031 16.9998V20.2798C19.031 20.8765 18.7939 21.4488 18.372 21.8707C17.95 22.2927 17.3777 22.5298 16.781 22.5298H9.281ZM8.531 20.2798C8.531 20.6948 8.867 21.0298 9.281 21.0298H16.781C16.9799 21.0298 17.1707 20.9507 17.3113 20.8101C17.452 20.6694 17.531 20.4787 17.531 20.2798V16.9998C17.531 16.8008 17.452 16.6101 17.3113 16.4694C17.1707 16.3288 16.9799 16.2498 16.781 16.2498H9.281C9.08209 16.2498 8.89132 16.3288 8.75067 16.4694C8.61002 16.6101 8.531 16.8008 8.531 16.9998V20.2798Z" fill="url(#paint0_radial_22_1032)"/>
<path d="M6.281 11.7803C6.08209 11.7803 5.89132 11.8593 5.75067 11.9999C5.61002 12.1406 5.531 12.3314 5.531 12.5303C5.531 12.7292 5.61002 12.92 5.75067 13.0606C5.89132 13.2013 6.08209 13.2803 6.281 13.2803H7.97C8.16891 13.2803 8.35968 13.2013 8.50033 13.0606C8.64098 12.92 8.72 12.7292 8.72 12.5303C8.72 12.3314 8.64098 12.1406 8.50033 11.9999C8.35968 11.8593 8.16891 11.7803 7.97 11.7803H6.281ZM11.344 11.7803C11.1451 11.7803 10.9543 11.8593 10.8137 11.9999C10.673 12.1406 10.594 12.3314 10.594 12.5303C10.594 12.7292 10.673 12.92 10.8137 13.0606C10.9543 13.2013 11.1451 13.2803 11.344 13.2803H14.719C14.9179 13.2803 15.1087 13.2013 15.2493 13.0606C15.39 12.92 15.469 12.7292 15.469 12.5303C15.469 12.3314 15.39 12.1406 15.2493 11.9999C15.1087 11.8593 14.9179 11.7803 14.719 11.7803H11.344ZM18.094 11.7803C17.8951 11.7803 17.7043 11.8593 17.5637 11.9999C17.423 12.1406 17.344 12.3314 17.344 12.5303C17.344 12.7292 17.423 12.92 17.5637 13.0606C17.7043 13.2013 17.8951 13.2803 18.094 13.2803H19.781C19.9799 13.2803 20.1707 13.2013 20.3113 13.0606C20.452 12.92 20.531 12.7292 20.531 12.5303C20.531 12.3314 20.452 12.1406 20.3113 11.9999C20.1707 11.8593 19.9799 11.7803 19.781 11.7803H18.094Z" fill="url(#paint1_radial_22_1032)"/>
<defs>
<radialGradient id="paint0_radial_22_1032" cx="0" cy="0" r="1" gradientUnits="userSpaceOnUse" gradientTransform="translate(6.26132 -10.6323) rotate(72.89) scale(55.4735 8.64577)">
<stop stop-color="white"/>
<stop offset="1" stop-color="#504747"/>
</radialGradient>
<radialGradient id="paint1_radial_22_1032" cx="0" cy="0" r="1" gradientUnits="userSpaceOnUse" gradientTransform="translate(4.5689 10.8007) rotate(10.9966) scale(20.7825 2.15695)">
<stop stop-color="white"/>
<stop offset="1" stop-color="#504747"/>
</radialGradient>
</defs>
</svg>
