<svg width="25" height="25" viewBox="0 0 25 25" fill="none" xmlns="http://www.w3.org/2000/svg">
<path d="M12.5 20.5C14.6217 20.5 16.6566 19.6571 18.1569 18.1569C19.6571 16.6566 20.5 14.6217 20.5 12.5C20.5 10.3783 19.6571 8.34344 18.1569 6.84315C16.6566 5.34285 14.6217 4.5 12.5 4.5C10.3783 4.5 8.34344 5.34285 6.84315 6.84315C5.34285 8.34344 4.5 10.3783 4.5 12.5C4.5 14.6217 5.34285 16.6566 6.84315 18.1569C8.34344 19.6571 10.3783 20.5 12.5 20.5ZM12.5 22.5C6.977 22.5 2.5 18.023 2.5 12.5C2.5 6.977 6.977 2.5 12.5 2.5C18.023 2.5 22.5 6.977 22.5 12.5C22.5 18.023 18.023 22.5 12.5 22.5ZM12.5 16.5C13.5609 16.5 14.5783 16.0786 15.3284 15.3284C16.0786 14.5783 16.5 13.5609 16.5 12.5C16.5 11.4391 16.0786 10.4217 15.3284 9.67157C14.5783 8.92143 13.5609 8.5 12.5 8.5C11.4391 8.5 10.4217 8.92143 9.67157 9.67157C8.92143 10.4217 8.5 11.4391 8.5 12.5C8.5 13.5609 8.92143 14.5783 9.67157 15.3284C10.4217 16.0786 11.4391 16.5 12.5 16.5ZM12.5 18.5C10.9087 18.5 9.38258 17.8679 8.25736 16.7426C7.13214 15.6174 6.5 14.0913 6.5 12.5C6.5 10.9087 7.13214 9.38258 8.25736 8.25736C9.38258 7.13214 10.9087 6.5 12.5 6.5C14.0913 6.5 15.6174 7.13214 16.7426 8.25736C17.8679 9.38258 18.5 10.9087 18.5 12.5C18.5 14.0913 17.8679 15.6174 16.7426 16.7426C15.6174 17.8679 14.0913 18.5 12.5 18.5ZM12.5 14.5C11.9696 14.5 11.4609 14.2893 11.0858 13.9142C10.7107 13.5391 10.5 13.0304 10.5 12.5C10.5 11.9696 10.7107 11.4609 11.0858 11.0858C11.4609 10.7107 11.9696 10.5 12.5 10.5C13.0304 10.5 13.5391 10.7107 13.9142 11.0858C14.2893 11.4609 14.5 11.9696 14.5 12.5C14.5 13.0304 14.2893 13.5391 13.9142 13.9142C13.5391 14.2893 13.0304 14.5 12.5 14.5Z" fill="url(#paint0_radial_22_1037)"/>
<defs>
<radialGradient id="paint0_radial_22_1037" cx="0" cy="0" r="1" gradientUnits="userSpaceOnUse" gradientTransform="translate(1.2172 -10.5612) rotate(62.7689) scale(59.4456 13.4059)">
<stop stop-color="white"/>
<stop offset="1" stop-color="#504747"/>
</radialGradient>
</defs>
</svg>
